<svg xmlns="http://www.w3.org/2000/svg" viewBox="0 0 1200 800"><rect width="1200" height="800" fill="#0c1814"/><rect x="150" y="90" width="900" height="620" rx="10" fill="#ece2cf"/><rect x="205" y="155" width="790" height="70" fill="#d7cab2"/><g fill="#33443b"><rect x="230" y="178" width="220" height="16"/><rect x="715" y="178" width="210" height="16"/></g><g stroke="#a99878"><path d="M220 280h760M220 360h760M220 440h760M220 520h760M220 600h760"/><path d="M470 250v390M760 250v390"/></g><g fill="#496054"><rect x="250" y="307" width="145" height="14"/><rect x="505" y="307" width="205" height="14"/><rect x="795" y="307" width="130" height="14"/><rect x="250" y="387" width="170" height="14"/><rect x="505" y="387" width="150" height="14"/><rect x="795" y="387" width="165" height="14"/></g><circle cx="915" cy="575" r="62" fill="none" stroke="#7f3e3a" stroke-width="8"/><text x="915" y="586" text-anchor="middle" font-family="Georgia" font-size="34" fill="#7f3e3a">A&amp;A</text></svg>