<svg xmlns="http://www.w3.org/2000/svg" viewBox="0 0 1200 800"><rect width="1200" height="800" fill="#101b17"/><g fill="#2a372f"><rect x="90" y="90" width="300" height="620"/><rect x="450" y="90" width="300" height="620"/><rect x="810" y="90" width="300" height="620"/></g><g fill="#b69a64"><rect x="125" y="145" width="230" height="22"/><rect x="485" y="145" width="230" height="22"/><rect x="845" y="145" width="230" height="22"/></g><g fill="#ded1bb"><rect x="125" y="205" width="230" height="130"/><rect x="125" y="370" width="230" height="130"/><rect x="125" y="535" width="230" height="110"/><rect x="485" y="205" width="230" height="180"/><rect x="485" y="420" width="230" height="225"/><rect x="845" y="205" width="230" height="120"/><rect x="845" y="360" width="230" height="285"/></g><g stroke="#796b58" stroke-width="5"><path d="M155 245h170M155 405h170M515 250h170M515 465h170M875 245h170M875 405h170"/></g></svg>